<?xml version="1.0" encoding="utf-8"?>
<!DOCTYPE svg PUBLIC "-//W3C//DTD SVG 1.1//EN" "http://www.w3.org/Graphics/SVG/1.1/DTD/svg11.dtd">
<svg version="1.1" id="Layer_1" xmlns="http://www.w3.org/2000/svg" xmlns:xlink="http://www.w3.org/1999/xlink" x="0px" y="0px"
	 width="100px" height="100px" viewBox="0 0 100 100" style="enable-background:new 0 0 100 100;" xml:space="preserve">
<path style="fill:#92C131;" d="M100,94c0,3.313-2.687,6-6,6H6c-3.313,0-6-2.687-6-6V6c0-3.313,2.687-6,6-6h88c3.313,0,6,2.687,6,6
	V94z"/>
<g>
	<path style="fill:#FFFFFF;" d="M82,27.25v42.5V76h-6.25h-52.5H17v-6.25v-42.5V21h6.25h52.5H82V27.25z M37,39.75v-7.5
		c0-0.364,0-1.25,0-1.25h-1.25h-12.5C22.885,31,22,31,22,31v1.25v7.5c0,0.365,0,1.25,0,1.25h1.25h12.5c0.364,0,1.25,0,1.25,0V39.75z
		 M37,54.75v-7.5c0-0.364,0-1.25,0-1.25h-1.25h-12.5C22.885,46,22,46,22,46v1.25v7.5c0,0.365,0,1.25,0,1.25h1.25h12.5
		c0.364,0,1.25,0,1.25,0V54.75z M37,69.75v-7.5c0-0.364,0-1.25,0-1.25h-1.25h-12.5C22.885,61,22,61,22,61v1.25v7.5
		c0,0.365,0,1.25,0,1.25h1.25h12.5c0.364,0,1.25,0,1.25,0V69.75z M57,39.75v-7.5c0-0.364,0-1.25,0-1.25h-1.25h-12.5
		C42.885,31,42,31,42,31v1.25v7.5c0,0.365,0,1.25,0,1.25h1.25h12.5c0.364,0,1.25,0,1.25,0V39.75z M57,54.75v-7.5
		c0-0.364,0-1.25,0-1.25h-1.25h-12.5C42.885,46,42,46,42,46v1.25v7.5c0,0.365,0,1.25,0,1.25h1.25h12.5c0.364,0,1.25,0,1.25,0V54.75z
		 M57,69.75v-7.5c0-0.364,0-1.25,0-1.25h-1.25h-12.5C42.885,61,42,61,42,61v1.25v7.5c0,0.365,0,1.25,0,1.25h1.25h12.5
		c0.364,0,1.25,0,1.25,0V69.75z M77,39.75v-7.5c0-0.364,0-1.25,0-1.25h-1.25h-12.5C62.885,31,62,31,62,31v1.25v7.5
		c0,0.365,0,1.25,0,1.25h1.25h12.5c0.364,0,1.25,0,1.25,0V39.75z M77,54.75v-7.5c0-0.364,0-1.25,0-1.25h-1.25h-12.5
		C62.885,46,62,46,62,46v1.25v7.5c0,0.365,0,1.25,0,1.25h1.25h12.5c0.364,0,1.25,0,1.25,0V54.75z M77,69.75v-7.5
		c0-0.364,0-1.25,0-1.25h-1.25h-12.5C62.885,61,62,61,62,61v1.25v7.5c0,0.365,0,1.25,0,1.25h1.25h12.5c0.364,0,1.25,0,1.25,0V69.75z
		"/>
</g>
</svg>
